<svg version="1.1" id="Layer_1" xmlns="http://www.w3.org/2000/svg" xmlns:xlink="http://www.w3.org/1999/xlink" x="0px" y="0px"
	 width="100%" viewBox="0 0 1132 754" enable-background="new 0 0 1132 754" xml:space="preserve">
<path fill="#010101" opacity="1.000000" stroke="none" 
	d="
M738.000000,755.000000 
	C492.032501,755.000000 246.565033,755.000000 1.048772,755.000000 
	C1.048772,503.732483 1.048772,252.464935 1.048772,1.000000 
	C189.575836,1.000000 378.151764,1.000000 566.727661,1.000000 
	C755.369324,1.000000 944.011047,1.000000 1132.826416,1.000000 
	C1132.826416,252.333237 1132.826416,503.666595 1132.826416,755.000000 
	C1001.464844,755.000000 869.982422,755.000000 738.000000,755.000000 
M854.643616,443.228149 
	C855.033752,442.794952 855.423889,442.361755 856.500488,441.657867 
	C862.792786,437.489014 869.085083,433.320190 876.048401,429.079376 
	C878.744446,426.483582 882.162292,424.307587 883.971802,421.196198 
	C886.877441,416.200226 889.950134,410.764191 890.758057,405.195801 
	C892.515137,393.085510 885.839722,384.188934 876.903137,376.020599 
	C873.700745,373.641144 870.498352,371.261719 866.983276,368.223969 
	C865.689575,367.745056 864.395935,367.266144 863.108704,366.074524 
	C861.009094,364.731873 858.909424,363.389221 856.529602,361.442657 
	C837.639832,350.172638 816.839417,343.396820 796.199280,336.442688 
	C768.262268,327.030060 736.318176,320.463104 733.474976,322.488708 
	C744.038269,325.485718 754.886536,328.113251 765.417847,331.677490 
	C776.057129,335.278320 786.515015,339.503662 796.812500,344.004395 
	C810.674316,350.063019 823.714966,357.530487 833.717590,369.284332 
	C838.415222,374.804413 841.576172,381.544647 840.385803,388.484802 
	C839.457581,393.896790 835.407959,398.773346 832.111755,404.125549 
	C825.447937,409.107025 818.784119,414.088501 812.040710,419.043549 
	C812.040710,419.043549 812.054810,419.126190 811.361084,419.269684 
	C809.184204,420.486267 807.007385,421.702850 804.059998,422.813934 
	C797.973816,425.197571 791.984131,427.874786 785.784607,429.913818 
	C759.211731,438.653778 731.846008,444.017426 704.155640,447.328491 
	C683.626404,449.783234 662.941650,451.148285 642.286865,452.281799 
	C623.317566,453.322754 604.288452,453.988647 585.298950,453.752441 
	C564.561096,453.494507 543.833130,452.111084 523.111450,451.018555 
	C512.714417,450.470428 502.269989,449.994934 491.971191,448.581573 
	C469.981476,445.563873 448.035797,442.177856 426.140594,438.531219 
	C402.020142,434.514008 378.405396,428.327789 355.280334,420.384796 
	C347.079865,417.568085 339.087189,414.146515 330.646332,410.425598 
	C328.766785,409.609894 326.887238,408.794189 324.576630,407.437836 
	C322.090790,406.199707 319.604950,404.961609 316.861023,403.096985 
	C312.064789,399.994568 307.268555,396.892151 302.177185,393.167938 
	C299.561951,390.376038 296.853058,387.665253 294.350494,384.775757 
	C288.630066,378.170776 285.646301,366.518677 290.902496,357.632019 
	C296.478333,348.204926 304.543396,341.636658 313.915161,336.876129 
	C338.041565,324.620911 363.824982,317.334961 390.437866,312.810028 
	C395.554565,311.940063 400.627960,310.815186 405.721313,309.807861 
	C403.333344,308.983704 401.026917,308.836304 398.819153,309.235168 
	C375.970367,313.362823 353.032623,317.085602 330.331207,321.915466 
	C309.704590,326.303955 289.613556,332.697876 270.199097,342.956238 
	C267.739227,344.504883 265.279358,346.053528 262.164612,347.789337 
	C261.089966,348.474030 260.015320,349.158722 258.271393,350.063446 
	C253.477707,354.098022 248.056427,357.592865 244.023972,362.282043 
	C236.182434,371.400665 232.935303,382.272034 239.016357,394.245880 
	C243.520584,403.114838 250.298859,409.885040 259.017090,415.811737 
	C260.799896,416.815918 262.582703,417.820129 264.407166,418.767090 
	C264.407166,418.767090 264.432556,418.836243 264.726227,419.446808 
	C267.431274,421.113586 270.136292,422.780396 273.225006,424.874939 
	C273.787689,424.988281 274.350372,425.101624 275.079651,425.740723 
	C276.104828,426.063904 277.130005,426.387085 278.409393,427.151825 
	C278.859558,427.329376 279.309753,427.506897 280.137512,428.211700 
	C288.095337,431.713470 296.053162,435.215240 304.581329,439.223083 
	C313.056854,442.079590 321.532379,444.936066 330.718170,448.064484 
	C338.288666,450.203979 345.783386,452.676483 353.444061,454.419647 
	C375.186157,459.367004 396.908508,464.479584 418.809906,468.621307 
	C433.561401,471.410950 448.575745,472.920135 463.522339,474.542969 
	C485.405243,476.918945 507.290863,479.653107 529.250793,480.851837 
	C566.587402,482.889954 603.978638,484.135681 641.384155,482.093323 
	C657.656860,481.204865 674.010864,481.147919 690.194763,479.446136 
	C714.757202,476.863220 739.254150,473.510468 763.677368,469.813629 
	C775.577515,468.012268 787.247925,464.692810 799.611816,462.054535 
	C800.122559,461.882355 800.633362,461.710175 801.885559,461.566681 
	C802.592957,461.426056 803.300415,461.285461 804.825012,461.175385 
	C813.874634,458.087738 822.924255,455.000092 832.771423,451.939148 
	C835.834106,450.799225 838.896729,449.659302 842.636780,448.588074 
	C844.798828,447.548157 846.960938,446.508240 849.665039,445.276825 
	C849.780823,445.124115 849.896545,444.971405 850.664612,444.838654 
	C851.794006,444.274139 852.923340,443.709656 854.643616,443.228149 
M517.305420,304.533966 
	C522.729187,302.344940 528.044373,299.818329 533.597839,298.032837 
	C547.859985,293.447510 562.755493,293.330444 577.517212,292.353119 
	C580.387024,292.163116 583.251221,291.886566 586.117981,291.649963 
	C585.639709,290.301727 585.273682,289.959534 584.861755,289.890411 
	C568.878479,287.207092 552.661438,285.483246 536.967285,281.629272 
	C520.655090,277.623474 508.994446,267.524078 503.811584,250.552078 
	C498.845734,234.290665 498.243408,217.594070 497.014801,200.905624 
	C496.897919,199.318039 496.377411,197.760147 496.044312,196.188477 
	C494.621643,196.956696 494.348267,197.548355 494.239288,198.168900 
	C491.518250,213.659103 489.533447,229.324539 485.878082,244.590103 
	C483.005188,256.587921 476.502228,266.678680 464.714844,272.715668 
	C453.327393,278.547821 441.128906,280.430511 428.726013,281.598755 
	C416.985413,282.704620 405.201782,283.354034 393.437073,284.204193 
	C394.292358,284.956146 395.194977,285.162689 396.106995,285.311310 
	C413.320496,288.116211 430.701111,290.164490 447.702362,293.927002 
	C464.336792,297.608398 476.205627,307.762207 481.470490,324.636261 
	C485.817261,338.567719 486.824615,352.972473 487.790161,367.387604 
	C488.252838,374.295044 488.543152,381.214020 488.981384,389.438507 
	C491.065308,374.902649 492.592804,361.719360 494.916046,348.677856 
	C497.880554,332.036346 501.929901,315.728729 517.305420,304.533966 
z"/>
<path fill="#FBFBFB" opacity="1.000000" stroke="none" 
	d="
M804.007812,461.144836 
	C803.300415,461.285461 802.592957,461.426056 801.489685,461.216888 
	C800.978516,460.218811 800.863220,459.570526 800.485596,457.446899 
	C799.678833,459.990692 799.350586,461.025635 799.022339,462.060577 
	C787.247925,464.692810 775.577515,468.012268 763.677368,469.813629 
	C739.254150,473.510468 714.757202,476.863220 690.194763,479.446136 
	C674.010864,481.147919 657.656860,481.204865 641.384155,482.093323 
	C603.978638,484.135681 566.587402,482.889954 529.250793,480.851837 
	C507.290863,479.653107 485.405243,476.918945 463.522339,474.542969 
	C448.575745,472.920135 433.561401,471.410950 418.809906,468.621307 
	C396.908508,464.479584 375.186157,459.367004 353.444061,454.419647 
	C345.783386,452.676483 338.288666,450.203979 330.365967,447.607849 
	C328.661530,442.763123 326.238373,439.263702 321.907288,437.010651 
	C321.785217,438.720612 321.687500,440.089691 321.589752,441.458740 
	C321.046692,441.462128 320.503662,441.465515 319.960602,441.468903 
	C319.582855,438.344299 319.431946,435.170227 318.764465,432.108795 
	C318.078400,428.962311 317.649719,425.298370 315.744019,422.984772 
	C312.709351,419.300659 312.492493,415.341827 313.188507,411.372803 
	C313.661377,408.676178 315.751953,406.263245 317.119110,403.723480 
	C319.604950,404.961609 322.090790,406.199707 324.809845,408.023560 
	C326.237671,413.907959 326.452881,413.994385 330.999634,411.001099 
	C339.087189,414.146515 347.079865,417.568085 355.280334,420.384796 
	C378.405396,428.327789 402.020142,434.514008 426.140594,438.531219 
	C448.035797,442.177856 469.981476,445.563873 491.971191,448.581573 
	C502.269989,449.994934 512.714417,450.470428 523.111450,451.018555 
	C543.833130,452.111084 564.561096,453.494507 585.298950,453.752441 
	C604.288452,453.988647 623.317566,453.322754 642.286865,452.281799 
	C662.941650,451.148285 683.626404,449.783234 704.155640,447.328491 
	C731.846008,444.017426 759.211731,438.653778 785.784607,429.913818 
	C791.984131,427.874786 797.973816,425.197571 804.785095,423.037720 
	C807.500549,423.816071 809.577332,425.023224 811.461182,424.773712 
	C814.353271,424.390625 814.661865,422.682129 812.000000,420.999390 
	C812.000000,421.000000 812.000000,421.001221 812.007812,420.688660 
	C812.028748,419.959473 812.041748,419.542847 812.054810,419.126190 
	C812.054810,419.126190 812.040710,419.043549 812.417480,419.207581 
	C815.668579,418.826569 818.542969,418.281525 821.680969,417.686523 
	C821.680969,418.562012 822.211243,420.656219 821.588196,422.318054 
	C819.038391,429.119354 816.116211,435.780426 813.394226,442.518677 
	C813.102173,443.241760 812.881653,444.319397 813.208801,444.911804 
	C814.805603,447.803284 812.580017,448.862091 811.032715,450.589996 
	C808.209717,453.742432 804.002380,456.082367 804.007812,461.144836 
M329.483154,415.582428 
	C329.483154,415.582428 329.421722,415.477600 329.483154,415.582428 
M326.483154,414.585724 
	C326.483154,414.585724 326.418213,414.476624 326.483154,414.585724 
z"/>
<path fill="#F9F9F9" opacity="1.000000" stroke="none" 
	d="
M516.955200,304.658447 
	C501.929901,315.728729 497.880554,332.036346 494.916046,348.677856 
	C492.592804,361.719360 491.065308,374.902649 488.981384,389.438507 
	C488.543152,381.214020 488.252838,374.295044 487.790161,367.387604 
	C486.824615,352.972473 485.817261,338.567719 481.470490,324.636261 
	C476.205627,307.762207 464.336792,297.608398 447.702362,293.927002 
	C430.701111,290.164490 413.320496,288.116211 396.106995,285.311310 
	C395.194977,285.162689 394.292358,284.956146 393.437073,284.204193 
	C405.201782,283.354034 416.985413,282.704620 428.726013,281.598755 
	C441.128906,280.430511 453.327393,278.547821 464.714844,272.715668 
	C476.502228,266.678680 483.005188,256.587921 485.878082,244.590103 
	C489.533447,229.324539 491.518250,213.659103 494.239288,198.168900 
	C494.348267,197.548355 494.621643,196.956696 496.044312,196.188477 
	C496.377411,197.760147 496.897919,199.318039 497.014801,200.905624 
	C498.243408,217.594070 498.845734,234.290665 503.811584,250.552078 
	C508.994446,267.524078 520.655090,277.623474 536.967285,281.629272 
	C552.661438,285.483246 568.878479,287.207092 584.861755,289.890411 
	C585.273682,289.959534 585.639709,290.301727 586.117981,291.649963 
	C583.251221,291.886566 580.387024,292.163116 577.517212,292.353119 
	C562.755493,293.330444 547.859985,293.447510 533.597839,298.032837 
	C528.044373,299.818329 522.729187,302.344940 516.955200,304.658447 
z"/>
<path fill="#ECECEC" opacity="1.000000" stroke="none" 
	d="
M270.895691,342.761749 
	C289.613556,332.697876 309.704590,326.303955 330.331207,321.915466 
	C353.032623,317.085602 375.970367,313.362823 398.819153,309.235168 
	C401.026917,308.836304 403.333344,308.983704 405.721313,309.807861 
	C400.627960,310.815186 395.554565,311.940063 390.437866,312.810028 
	C363.824982,317.334961 338.041565,324.620911 313.915161,336.876129 
	C304.543396,341.636658 296.478333,348.204926 290.902496,357.632019 
	C285.646301,366.518677 288.630066,378.170776 294.350494,384.775757 
	C296.853058,387.665253 299.561951,390.376038 301.910706,393.533813 
	C297.771149,393.906219 296.709045,395.741119 297.867188,399.349548 
	C298.465485,401.213806 299.284271,403.373383 298.869598,405.132202 
	C297.227661,412.096527 300.246948,418.323486 301.426361,424.836090 
	C302.265045,429.467194 303.147858,434.090302 304.010986,438.716980 
	C296.053162,435.215240 288.095337,431.713470 280.010071,427.552551 
	C279.649414,425.841949 279.416168,424.790466 279.182922,423.739014 
	C278.840332,423.797241 278.497772,423.855469 278.155182,423.913696 
	C278.155182,424.845886 278.155182,425.778076 278.155182,426.710266 
	C277.130005,426.387085 276.104828,426.063904 275.054382,425.104858 
	C278.953644,421.516418 279.488220,418.304688 278.249725,413.214142 
	C275.202209,400.687653 275.266876,387.756927 275.993042,374.886414 
	C276.123901,372.567230 276.105927,370.240051 276.201782,367.918427 
	C276.416321,362.721497 276.919525,357.518463 276.773926,352.332825 
	C276.707581,349.969604 275.382446,347.641693 274.996948,346.443604 
	C271.825867,347.852203 269.422089,348.919952 266.769409,349.981628 
	C266.520477,349.975525 266.022522,349.970093 266.058533,349.615967 
	C267.391876,348.174469 268.864532,347.231384 269.922028,345.946533 
	C270.573975,345.154388 270.592651,343.841064 270.895691,342.761749 
M277.826050,341.340607 
	C277.853119,342.120544 277.880219,342.900482 277.907318,343.680420 
	C278.470367,343.532410 279.033386,343.384399 279.596436,343.236389 
	C279.230957,342.553558 278.865479,341.870697 277.826050,341.340607 
z"/>
<path fill="#ECECEC" opacity="1.000000" stroke="none" 
	d="
M841.959412,448.519348 
	C838.896729,449.659302 835.834106,450.799225 832.321533,451.606964 
	C830.499451,450.801758 829.127258,450.328705 827.508301,449.770569 
	C829.536438,441.436371 831.636902,433.041260 833.591736,424.612335 
	C834.102905,422.408081 834.276245,420.105103 834.400879,417.836273 
	C834.589111,414.413635 834.775879,410.971466 834.590088,407.557892 
	C834.521851,406.304779 833.391357,405.109497 832.745361,403.887817 
	C835.407959,398.773346 839.457581,393.896790 840.385803,388.484802 
	C841.576172,381.544647 838.415222,374.804413 833.717590,369.284332 
	C823.714966,357.530487 810.674316,350.063019 796.812500,344.004395 
	C786.515015,339.503662 776.057129,335.278320 765.417847,331.677490 
	C754.886536,328.113251 744.038269,325.485718 733.474976,322.488708 
	C736.318176,320.463104 768.262268,327.030060 796.199280,336.442688 
	C816.839417,343.396820 837.639832,350.172638 856.307678,361.732666 
	C850.246582,363.861816 850.243530,363.958649 852.651367,369.735199 
	C853.074219,370.749695 853.011047,372.016357 852.982483,373.161835 
	C852.672668,385.560760 852.594421,397.974976 851.852539,410.348969 
	C851.562500,415.186462 849.434875,419.885864 848.725708,424.733215 
	C847.840515,430.783722 847.555481,436.921997 846.717285,443.145447 
	C845.625366,443.530792 844.827454,443.793091 843.835632,443.813477 
	C843.098572,444.387024 842.555359,445.202484 842.009399,446.330750 
	C841.990906,447.268860 841.975159,447.894104 841.959412,448.519348 
M838.169434,445.746338 
	C838.116272,445.585144 838.063110,445.423981 838.009949,445.262787 
	C837.957764,445.424896 837.905579,445.587036 838.169434,445.746338 
M836.516113,405.415375 
	C836.516113,405.415375 836.580261,405.523987 836.516113,405.415375 
z"/>
<path fill="#D1D1D1" opacity="1.000000" stroke="none" 
	d="
M258.684174,415.119293 
	C250.298859,409.885040 243.520584,403.114838 239.016357,394.245880 
	C232.935303,382.272034 236.182434,371.400665 244.023972,362.282043 
	C248.056427,357.592865 253.477707,354.098022 258.620026,350.350586 
	C257.730042,354.846497 255.475906,359.050323 255.455658,363.264923 
	C255.407578,373.285736 256.411621,383.311890 257.002899,393.335144 
	C257.109528,395.142242 257.362091,396.944214 257.395172,398.751343 
	C257.458862,402.226013 257.413727,405.702667 257.413727,409.279541 
	C257.794861,411.031525 258.239532,413.075409 258.684174,415.119293 
z"/>
<path fill="#DCDCDC" opacity="1.000000" stroke="none" 
	d="
M867.296021,368.882294 
	C870.498352,371.261719 873.700745,373.641144 877.012512,376.712952 
	C878.233643,379.867493 879.345337,382.329712 880.530945,384.955597 
	C879.791138,386.848724 878.065979,389.153595 878.157288,391.384094 
	C878.622498,402.745575 876.776733,413.677887 873.489380,424.494080 
	C873.110657,425.740112 874.700256,427.584412 875.377319,429.151367 
	C869.085083,433.320190 862.792786,437.489014 855.930176,441.573853 
	C855.245605,440.660553 855.131348,439.831268 855.315308,438.853241 
	C857.330505,438.121063 859.047607,437.537628 860.490906,437.047211 
	C860.220459,435.225037 859.141418,432.994385 859.833313,431.742157 
	C862.784851,426.400360 864.042236,421.046844 862.129456,415.096558 
	C861.916931,414.435577 862.495117,413.534271 862.661987,412.735107 
	C863.449890,408.962189 864.670105,405.213928 864.907593,401.405243 
	C865.414490,393.278259 865.288269,385.113464 865.681458,376.976715 
	C865.812805,374.258911 866.735168,371.579346 867.296021,368.882294 
z"/>
<path fill="#F4F4F4" opacity="1.000000" stroke="none" 
	d="
M832.428589,404.006683 
	C833.391357,405.109497 834.521851,406.304779 834.590088,407.557892 
	C834.775879,410.971466 834.589111,414.413635 834.400879,417.836273 
	C834.276245,420.105103 834.102905,422.408081 833.591736,424.612335 
	C831.636902,433.041260 829.536438,441.436371 827.508301,449.770569 
	C829.127258,450.328705 830.499451,450.801758 831.922729,451.593628 
	C822.924255,455.000092 813.874634,458.087738 804.416382,461.160095 
	C804.002380,456.082367 808.209717,453.742432 811.032715,450.589996 
	C812.580017,448.862091 814.805603,447.803284 813.208801,444.911804 
	C812.881653,444.319397 813.102173,443.241760 813.394226,442.518677 
	C816.116211,435.780426 819.038391,429.119354 821.588196,422.318054 
	C822.211243,420.656219 821.680969,418.562012 821.680969,417.686523 
	C818.542969,418.281525 815.668579,418.826569 812.457275,419.220825 
	C818.784119,414.088501 825.447937,409.107025 832.428589,404.006683 
z"/>
<path fill="#F4F4F4" opacity="1.000000" stroke="none" 
	d="
M304.296143,438.970032 
	C303.147858,434.090302 302.265045,429.467194 301.426361,424.836090 
	C300.246948,418.323486 297.227661,412.096527 298.869598,405.132202 
	C299.284271,403.373383 298.465485,401.213806 297.867188,399.349548 
	C296.709045,395.741119 297.771149,393.906219 302.058289,393.844727 
	C307.268555,396.892151 312.064789,399.994568 316.990051,403.410217 
	C315.751953,406.263245 313.661377,408.676178 313.188507,411.372803 
	C312.492493,415.341827 312.709351,419.300659 315.744019,422.984772 
	C317.649719,425.298370 318.078400,428.962311 318.764465,432.108795 
	C319.431946,435.170227 319.582855,438.344299 319.960602,441.468903 
	C320.503662,441.465515 321.046692,441.462128 321.589752,441.458740 
	C321.687500,440.089691 321.785217,438.720612 321.907288,437.010651 
	C326.238373,439.263702 328.661530,442.763123 330.010803,447.471863 
	C321.532379,444.936066 313.056854,442.079590 304.296143,438.970032 
M300.593262,397.954041 
	C301.062592,397.636444 301.531921,397.318848 302.270874,396.893066 
	C302.180176,396.928314 302.089478,396.963531 301.404633,397.040741 
	C300.936829,397.360779 300.469025,397.680847 299.732208,398.108429 
	C299.821167,398.071869 299.910126,398.035339 300.593262,397.954041 
z"/>
<path fill="#DCDCDC" opacity="1.000000" stroke="none" 
	d="
M258.850647,415.465515 
	C258.239532,413.075409 257.794861,411.031525 257.413727,409.279541 
	C257.413727,405.702667 257.458862,402.226013 257.395172,398.751343 
	C257.362091,396.944214 257.109528,395.142242 257.002899,393.335144 
	C256.411621,383.311890 255.407578,373.285736 255.455658,363.264923 
	C255.475906,359.050323 257.730042,354.846497 258.954651,350.240601 
	C260.015320,349.158722 261.089966,348.474030 262.576019,348.070160 
	C263.999115,348.890686 265.010834,349.430389 266.022522,349.970093 
	C266.022522,349.970093 266.520477,349.975525 266.762787,350.451385 
	C266.672089,360.632233 266.284210,370.335876 266.042328,380.043152 
	C265.976715,382.676208 266.363922,385.319580 266.521912,387.959473 
	C266.712891,391.149475 266.800537,394.347931 267.081421,397.529633 
	C267.375427,400.859863 267.461090,404.283905 268.364868,407.460114 
	C269.043701,409.845734 270.632355,411.771210 268.279297,414.164948 
	C267.607056,414.848816 267.420319,417.082550 267.977814,417.641846 
	C268.741608,418.408051 270.428040,418.254547 271.873230,418.523956 
	C272.150269,420.218994 272.495819,422.333069 272.841339,424.447174 
	C270.136292,422.780396 267.431274,421.113586 264.700897,418.901428 
	C264.622833,418.236206 264.570099,418.116364 264.517365,417.996521 
	C264.466736,418.272461 264.416107,418.548401 264.365479,418.824341 
	C262.582703,417.820129 260.799896,416.815918 258.850647,415.465515 
z"/>
<path fill="#E4E4E4" opacity="1.000000" stroke="none" 
	d="
M273.033173,424.661072 
	C272.495819,422.333069 272.150269,420.218994 271.873230,418.523956 
	C270.428040,418.254547 268.741608,418.408051 267.977814,417.641846 
	C267.420319,417.082550 267.607056,414.848816 268.279297,414.164948 
	C270.632355,411.771210 269.043701,409.845734 268.364868,407.460114 
	C267.461090,404.283905 267.375427,400.859863 267.081421,397.529633 
	C266.800537,394.347931 266.712891,391.149475 266.521912,387.959473 
	C266.363922,385.319580 265.976715,382.676208 266.042328,380.043152 
	C266.284210,370.335876 266.672089,360.632233 267.011719,350.457458 
	C269.422089,348.919952 271.825867,347.852203 274.996948,346.443604 
	C275.382446,347.641693 276.707581,349.969604 276.773926,352.332825 
	C276.919525,357.518463 276.416321,362.721497 276.201782,367.918427 
	C276.105927,370.240051 276.123901,372.567230 275.993042,374.886414 
	C275.266876,387.756927 275.202209,400.687653 278.249725,413.214142 
	C279.488220,418.304688 278.953644,421.516418 274.971069,424.841980 
	C274.350372,425.101624 273.787689,424.988281 273.033173,424.661072 
z"/>
<path fill="#E8E8E8" opacity="1.000000" stroke="none" 
	d="
M855.017090,439.001984 
	C855.131348,439.831268 855.245605,440.660553 855.586975,441.709198 
	C855.423889,442.361755 855.033752,442.794952 854.193359,442.921753 
	C850.434875,439.853699 851.158020,443.918457 850.012329,444.818665 
	C849.896545,444.971405 849.780823,445.124115 849.340881,445.009918 
	C848.348206,444.169464 847.679749,443.595947 847.011353,443.022400 
	C847.555481,436.921997 847.840515,430.783722 848.725708,424.733215 
	C849.434875,419.885864 851.562500,415.186462 851.852539,410.348969 
	C852.594421,397.974976 852.672668,385.560760 852.982483,373.161835 
	C853.011047,372.016357 853.074219,370.749695 852.651367,369.735199 
	C850.243530,363.958649 850.246582,363.861816 856.447754,362.034637 
	C858.909424,363.389221 861.009094,364.731873 862.904907,366.739197 
	C861.468140,369.608337 859.355530,371.737823 859.160034,374.030792 
	C858.448303,382.376892 858.057739,390.780884 858.142639,399.157013 
	C858.260437,410.778137 856.939880,422.103180 853.568909,433.248779 
	C853.077942,434.872009 854.487122,437.069977 855.017090,439.001984 
z"/>
<path fill="#D1D1D1" opacity="1.000000" stroke="none" 
	d="
M875.712830,429.115356 
	C874.700256,427.584412 873.110657,425.740112 873.489380,424.494080 
	C876.776733,413.677887 878.622498,402.745575 878.157288,391.384094 
	C878.065979,389.153595 879.791138,386.848724 880.530945,384.955597 
	C879.345337,382.329712 878.233643,379.867493 877.136353,377.014648 
	C885.839722,384.188934 892.515137,393.085510 890.758057,405.195801 
	C889.950134,410.764191 886.877441,416.200226 883.971802,421.196198 
	C882.162292,424.307587 878.744446,426.483582 875.712830,429.115356 
z"/>
<path fill="#E4E4E4" opacity="1.000000" stroke="none" 
	d="
M855.315308,438.853241 
	C854.487122,437.069977 853.077942,434.872009 853.568909,433.248779 
	C856.939880,422.103180 858.260437,410.778137 858.142639,399.157013 
	C858.057739,390.780884 858.448303,382.376892 859.160034,374.030792 
	C859.355530,371.737823 861.468140,369.608337 862.901611,367.095520 
	C864.395935,367.266144 865.689575,367.745056 867.139648,368.553131 
	C866.735168,371.579346 865.812805,374.258911 865.681458,376.976715 
	C865.288269,385.113464 865.414490,393.278259 864.907593,401.405243 
	C864.670105,405.213928 863.449890,408.962189 862.661987,412.735107 
	C862.495117,413.534271 861.916931,414.435577 862.129456,415.096558 
	C864.042236,421.046844 862.784851,426.400360 859.833313,431.742157 
	C859.141418,432.994385 860.220459,435.225037 860.490906,437.047211 
	C859.047607,437.537628 857.330505,438.121063 855.315308,438.853241 
z"/>
<path fill="#F4F4F4" opacity="1.000000" stroke="none" 
	d="
M812.000000,420.998779 
	C814.661865,422.682129 814.353271,424.390625 811.461182,424.773712 
	C809.577332,425.023224 807.500549,423.816071 805.170349,423.090454 
	C807.007385,421.702850 809.184204,420.486267 811.707947,419.197937 
	C812.041748,419.542847 812.028748,419.959473 811.770813,420.702087 
	C811.254822,421.144531 810.983704,421.261047 810.712585,421.377563 
	C810.798157,421.499298 810.883728,421.621002 810.969360,421.742676 
	C811.312927,421.494690 811.656433,421.246735 812.000000,420.998779 
z"/>
<path fill="#E4E4E4" opacity="1.000000" stroke="none" 
	d="
M266.058533,349.615967 
	C265.010834,349.430389 263.999115,348.890686 262.903442,347.976562 
	C265.279358,346.053528 267.739227,344.504883 270.547394,342.859009 
	C270.592651,343.841064 270.573975,345.154388 269.922028,345.946533 
	C268.864532,347.231384 267.391876,348.174469 266.058533,349.615967 
z"/>
<path fill="#DCDCDC" opacity="1.000000" stroke="none" 
	d="
M846.717285,443.145447 
	C847.679749,443.595947 848.348206,444.169464 849.069824,445.105652 
	C846.960938,446.508240 844.798828,447.548157 842.298096,448.553711 
	C841.975159,447.894104 841.990906,447.268860 842.325439,446.285492 
	C843.105957,445.303375 843.567749,444.679352 844.029541,444.055359 
	C844.827454,443.793091 845.625366,443.530792 846.717285,443.145447 
z"/>
<path fill="#F4F4F4" opacity="1.000000" stroke="none" 
	d="
M330.822998,410.713348 
	C326.452881,413.994385 326.237671,413.907959 325.025391,408.293884 
	C326.887238,408.794189 328.766785,409.609894 330.822998,410.713348 
z"/>
<path fill="#DCDCDC" opacity="1.000000" stroke="none" 
	d="
M850.338501,444.828674 
	C851.158020,443.918457 850.434875,439.853699 853.897949,442.880249 
	C852.923340,443.709656 851.794006,444.274139 850.338501,444.828674 
z"/>
<path fill="#E4E4E4" opacity="1.000000" stroke="none" 
	d="
M278.282288,426.931030 
	C278.155182,425.778076 278.155182,424.845886 278.155182,423.913696 
	C278.497772,423.855469 278.840332,423.797241 279.182922,423.739014 
	C279.416168,424.790466 279.649414,425.841949 279.821289,427.288940 
	C279.309753,427.506897 278.859558,427.329376 278.282288,426.931030 
z"/>
<path fill="#F4F4F4" opacity="1.000000" stroke="none" 
	d="
M799.317078,462.057556 
	C799.350586,461.025635 799.678833,459.990692 800.485596,457.446899 
	C800.863220,459.570526 800.978516,460.218811 801.118958,461.202545 
	C800.633362,461.710175 800.122559,461.882355 799.317078,462.057556 
z"/>
<path fill="#E4E4E4" opacity="1.000000" stroke="none" 
	d="
M264.386322,418.795715 
	C264.416107,418.548401 264.466736,418.272461 264.517365,417.996521 
	C264.570099,418.116364 264.622833,418.236206 264.554077,418.596130 
	C264.432556,418.836243 264.407166,418.767090 264.386322,418.795715 
z"/>
<path fill="#F4F4F4" opacity="1.000000" stroke="none" 
	d="
M329.452454,415.530029 
	C329.421722,415.477600 329.483154,415.582428 329.452454,415.530029 
z"/>
<path fill="#F4F4F4" opacity="1.000000" stroke="none" 
	d="
M326.450684,414.531189 
	C326.418213,414.476624 326.483154,414.585724 326.450684,414.531189 
z"/>
<path fill="#E4E4E4" opacity="1.000000" stroke="none" 
	d="
M278.163025,341.264221 
	C278.865479,341.870697 279.230957,342.553558 279.596436,343.236389 
	C279.033386,343.384399 278.470367,343.532410 277.907318,343.680420 
	C277.880219,342.900482 277.853119,342.120544 278.163025,341.264221 
z"/>
<path fill="#E8E8E8" opacity="1.000000" stroke="none" 
	d="
M843.835632,443.813477 
	C843.567749,444.679352 843.105957,445.303375 842.328247,445.972656 
	C842.555359,445.202484 843.098572,444.387024 843.835632,443.813477 
z"/>
<path fill="#E8E8E8" opacity="1.000000" stroke="none" 
	d="
M838.011414,445.747742 
	C837.905579,445.587036 837.957764,445.424896 838.009949,445.262787 
	C838.063110,445.423981 838.116272,445.585144 838.011414,445.747742 
z"/>
<path fill="#F4F4F4" opacity="1.000000" stroke="none" 
	d="
M836.548218,405.469666 
	C836.580261,405.523987 836.516113,405.415375 836.548218,405.469666 
z"/>
<path fill="#ECECEC" opacity="1.000000" stroke="none" 
	d="
M302.001221,397.001221 
	C301.531921,397.318848 301.062592,397.636444 300.296631,397.977020 
	C300.000000,398.000000 300.001221,398.000885 300.001221,398.000916 
	C300.469025,397.680847 300.936829,397.360779 301.702332,397.020386 
	C302.000000,397.000000 302.001221,397.001221 302.001221,397.001221 
z"/>
<path fill="#ECECEC" opacity="1.000000" stroke="none" 
	d="
M301.999390,396.999390 
	C302.089478,396.963531 302.180176,396.928314 302.136047,396.947144 
	C302.001221,397.001221 302.000000,397.000000 301.999390,396.999390 
z"/>
<path fill="#ECECEC" opacity="1.000000" stroke="none" 
	d="
M299.999542,397.999390 
	C299.910126,398.035339 299.821167,398.071869 299.866699,398.054657 
	C300.001221,398.000885 300.000000,398.000000 299.999542,397.999390 
z"/>
<path fill="#FBFBFB" opacity="1.000000" stroke="none" 
	d="
M812.000000,420.999390 
	C811.656433,421.246735 811.312927,421.494690 810.969360,421.742676 
	C810.883728,421.621002 810.798157,421.499298 810.712585,421.377563 
	C810.983704,421.261047 811.254822,421.144531 811.762939,421.014618 
	C812.000000,421.001221 812.000000,421.000000 812.000000,420.999390 
z"/>
</svg>